<?xml version="1.0" encoding="UTF-8"?>
<svg id="Layer_1" data-name="Layer 1" xmlns="http://www.w3.org/2000/svg" viewBox="0 0 200.93 57.34">
  <defs>
    <style>
      .cls-1 {
        fill: #878a8f;
      }

      .cls-2 {
        fill: #4f7b39;
      }

      .cls-3 {
        fill: #868a8e;
      }
    </style>
  </defs>
  <polygon class="cls-1" points=".59 40.03 20.25 40.03 .59 20.36 .59 40.03"/>
  <polygon class="cls-2" points=".59 0 .59 13.09 27.52 40.03 39.85 40.03 39.85 0 .59 0"/>
  <g>
    <path class="cls-2" d="M54.82,15.55v5.99h-4.48V4.76h14.41v3.44h-9.93v3.95h9.23v3.41h-9.23Z"/>
    <path class="cls-2" d="M84.4,6.88c1.21.94,1.45,1.72,1.45,3.81v4.91c0,2.09-.24,2.9-1.45,3.81-1.77,1.29-4.27,2.47-8.19,2.47s-6.41-1.18-8.21-2.47c-1.21-.91-1.45-1.72-1.45-3.81v-4.91c0-2.09.24-2.9,1.45-3.81,1.8-1.32,4.29-2.52,8.21-2.52s6.42,1.21,8.19,2.52ZM71.68,9.32c-.43.35-.62.83-.62,1.56v4.54c0,.72.19,1.21.62,1.56.91.7,2.47,1.37,4.54,1.37s3.62-.67,4.54-1.37c.4-.35.59-.83.59-1.56v-4.54c0-.72-.19-1.18-.59-1.56-.97-.72-2.47-1.37-4.54-1.37s-3.6.64-4.54,1.37Z"/>
    <path class="cls-2" d="M106.03,6.88c1.21.94,1.45,1.72,1.45,3.81v4.91c0,2.09-.24,2.9-1.45,3.81-1.77,1.29-4.27,2.47-8.19,2.47s-6.41-1.18-8.21-2.47c-1.21-.91-1.45-1.72-1.45-3.81v-4.91c0-2.09.24-2.9,1.45-3.81,1.8-1.32,4.29-2.52,8.21-2.52s6.42,1.21,8.19,2.52ZM93.31,9.32c-.43.35-.62.83-.62,1.56v4.54c0,.72.19,1.21.62,1.56.91.7,2.47,1.37,4.54,1.37s3.62-.67,4.54-1.37c.4-.35.59-.83.59-1.56v-4.54c0-.72-.19-1.18-.59-1.56-.97-.72-2.47-1.37-4.54-1.37s-3.6.64-4.54,1.37Z"/>
    <path class="cls-2" d="M110.06,4.76h9.23c3.52,0,5.61.83,7.14,2.09,1.34,1.15,1.58,2.01,1.58,4.11v4.38c0,2.09-.16,3.03-1.61,4.24-1.45,1.18-3.6,1.96-7.11,1.96h-9.23V4.76ZM114.55,8.19v9.96h3.84c2.31,0,3.57-.46,4.46-1.15.51-.43.7-1.1.7-1.85v-4c0-.73-.19-1.4-.7-1.85-.89-.67-2.15-1.1-4.46-1.1h-3.84Z"/>
    <path class="cls-1" d="M130.41,21.29v-3.54c2.23.38,5.1.59,7,.59s3.22-.13,3.78-.38c.43-.19.56-.43.56-.91,0-.64-.7-.99-2.42-1.48l-4.64-1.4c-1.77-.54-2.87-1.13-3.6-1.85-.62-.64-.89-1.29-.89-2.12v-1.37c0-1.23.43-2.01,1.74-2.9,1.21-.83,3.89-1.45,6.98-1.45,2.33,0,4.48.16,6.31.54v3.57c-2.07-.4-4.56-.59-6.84-.59-1.77,0-2.74.11-3.22.38-.38.19-.48.48-.48.8,0,.62.43.94,2.2,1.42l5.02,1.53c1.69.48,2.76,1.05,3.44,1.69.7.64.94,1.26.94,2.09v1.53c0,1.58-.99,2.63-2.5,3.41-1.21.62-3.84.94-6.47.94s-4.99-.13-6.92-.51Z"/>
    <path class="cls-1" d="M161.26,18.31h-8.13l-1.21,3.22h-4.64l6.33-16.78h7.19l6.33,16.78h-4.67l-1.21-3.22ZM154.41,14.9h5.56l-2.42-6.36h-.75l-2.39,6.36Z"/>
    <path class="cls-1" d="M173.01,15.55v5.99h-4.48V4.76h14.41v3.44h-9.93v3.95h9.23v3.41h-9.23Z"/>
    <path class="cls-1" d="M184.99,4.76h14.82v3.44h-10.33v3.22h9.29v3.41h-9.29v3.33h10.33v3.38h-14.82V4.76Z"/>
  </g>
  <g>
    <path class="cls-1" d="M130.59,26.2h5.28c2.16,0,3.47.48,4.45,1.25.81.65.95,1.2.95,2.51v2.89c0,1.31-.1,1.89-.96,2.56-.95.73-2.27,1.18-4.43,1.18h-5.28v-10.38ZM132.77,27.9v7.02h2.74c1.51,0,2.52-.33,3.12-.8.35-.3.46-.71.46-1.26v-2.94c0-.53-.12-.95-.46-1.25-.6-.46-1.61-.78-3.12-.78h-2.74Z"/>
    <path class="cls-1" d="M146.78,34.22v2.36h-2.17v-10.38h4.62c2.04,0,3.15.48,4.15,1.25.81.61.91,1.11.91,2.46v.63c0,1.34-.1,1.84-.91,2.46-.35.27-.7.48-1.11.66l2.14,2.92h-2.54l-1.63-2.41c-.32.03-.65.05-1.01.05h-2.44ZM146.78,27.91v4.62h2.24c1.26,0,2.09-.35,2.62-.75.35-.3.46-.61.46-1.23v-.68c0-.6-.12-.91-.46-1.21-.53-.42-1.36-.75-2.62-.75h-2.24Z"/>
    <path class="cls-1" d="M165.17,34.32h-5.63l-.93,2.26h-2.26l4.25-10.38h3.5l4.27,10.38h-2.27l-.93-2.26ZM160.22,32.65h4.25l-1.89-4.6h-.46l-1.89,4.6Z"/>
    <path class="cls-1" d="M170.78,36.58v-10.38h2.17v10.38h-2.17Z"/>
    <path class="cls-1" d="M178.64,36.58h-2.17v-10.38h2.01l6.84,7.37v-7.37h2.17v10.38h-2.01l-6.84-7.3v7.3Z"/>
    <path class="cls-1" d="M190.83,36.45v-1.78c1.25.23,2.94.38,4.17.38s2.22-.13,2.64-.33c.33-.17.43-.4.43-.86,0-.61-.42-.9-1.66-1.21l-2.82-.8c-1.13-.3-1.83-.63-2.29-1.08-.4-.4-.55-.76-.55-1.36v-.8c0-.75.28-1.25,1.03-1.76.7-.46,2.21-.81,4.07-.81,1.43,0,2.67.1,3.79.33v1.79c-1.16-.25-2.64-.4-4.03-.4-1.25,0-1.94.12-2.29.33-.3.2-.38.45-.38.76,0,.58.22.86,1.69,1.23l2.99.85c1.05.28,1.68.58,2.06.96.46.4.61.81.61,1.38v.91c0,.96-.55,1.58-1.44,2.03-.81.37-2.26.53-3.9.53s-2.91-.08-4.1-.3Z"/>
  </g>
  <g>
    <path class="cls-3" d="M5.36,53.69H1.54l-.72,1.58h-.82l2.81-6.16h1.29l2.81,6.16h-.83l-.72-1.58ZM1.82,53.06h3.25l-1.49-3.27h-.28l-1.49,3.27Z"/>
    <path class="cls-3" d="M14.45,54.54c-.58.54-1.47.83-2.23.83s-1.49-.24-2.02-.66c-.29-.22-.44-.52-.44-.99v-1.76c0-.46.16-.77.44-1,.53-.41,1.25-.66,2.02-.66s1.65.3,2.23.84v-2.83h.77v6.95h-.77v-.73ZM14.45,51.85c-.45-.55-1.48-.88-2.1-.88-.58,0-.89.1-1.34.35-.37.19-.47.34-.47.71v1.64c0,.37.11.52.47.71.45.25.76.34,1.34.34.62,0,1.65-.34,2.1-.89v-1.98Z"/>
    <path class="cls-3" d="M16.89,49.38v-1.06h.78v1.06h-.78ZM16.89,55.27v-4.86h.78v4.86h-.78Z"/>
    <path class="cls-3" d="M20.73,55.27l-2.04-4.86h.82l1.75,4.22h.26l1.78-4.22h.79l-2.04,4.86h-1.32Z"/>
    <path class="cls-3" d="M25.1,49.38v-1.06h.78v1.06h-.78ZM25.1,55.27v-4.86h.78v4.86h-.78Z"/>
    <path class="cls-3" d="M31.99,50.5v.66c-.79-.15-1.48-.21-2.25-.21-1.35,0-1.57.17-1.57.63,0,.36.07.51.98.73l1.33.32c.74.18,1.19.34,1.42.51.26.2.34.39.34.73v.42c0,.39-.16.61-.46.79-.35.19-1.11.34-2.16.34-.79,0-1.55-.06-2.29-.24v-.66c.78.18,1.57.26,2.37.26,1.53,0,1.8-.23,1.8-.66,0-.35-.08-.55-1.05-.78l-1.33-.31c-.72-.17-1.14-.32-1.41-.54-.19-.19-.28-.44-.28-.79v-.21c0-.33.15-.65.42-.82.36-.23,1.11-.37,1.95-.37.76,0,1.4.04,2.18.19Z"/>
    <path class="cls-3" d="M33.74,49.38v-1.06h.78v1.06h-.78ZM33.74,55.27v-4.86h.78v4.86h-.78Z"/>
    <path class="cls-3" d="M36.05,51.94c0-.42.13-.74.44-.98.52-.39,1.28-.65,2.32-.65s1.76.26,2.31.66c.29.23.44.53.44.99v1.77c0,.45-.16.76-.44.98-.54.41-1.28.66-2.31.66s-1.79-.25-2.32-.64c-.32-.24-.44-.56-.44-.98v-1.81ZM36.83,53.68c0,.33.09.51.47.71.47.26.92.33,1.51.33s1.01-.08,1.5-.34c.36-.19.48-.35.48-.71v-1.64c0-.37-.12-.53-.48-.72-.49-.26-.92-.34-1.5-.34s-1.03.07-1.51.33c-.39.2-.47.38-.47.71v1.68Z"/>
    <path class="cls-3" d="M43.09,55.27v-4.86h.78v.74c.53-.53,1.29-.84,2.03-.84s1.45.15,1.97.57c.3.23.44.53.44.99v3.4h-.77v-3.34c0-.36-.12-.51-.43-.69-.37-.21-.75-.27-1.37-.27-.7,0-1.42.34-1.87.77v3.53h-.78Z"/>
    <path class="cls-3" d="M52.01,51.94c0-.42.13-.74.44-.98.52-.39,1.28-.65,2.32-.65s1.76.26,2.31.66c.29.23.44.53.44.99v1.77c0,.45-.16.76-.44.98-.54.41-1.28.66-2.31.66s-1.79-.25-2.32-.64c-.32-.24-.44-.56-.44-.98v-1.81ZM52.79,53.68c0,.33.09.51.47.71.47.26.92.33,1.51.33s1.01-.08,1.5-.34c.36-.19.48-.35.48-.71v-1.64c0-.37-.12-.53-.48-.72-.49-.26-.92-.34-1.5-.34s-1.03.07-1.51.33c-.39.2-.47.38-.47.71v1.68Z"/>
    <path class="cls-3" d="M59.82,51.07v4.2h-.77v-5.33c0-.58.11-.93.43-1.21.32-.29.88-.5,1.5-.5.43,0,.77.08,1.04.2v.64c-.29-.1-.56-.19-1-.19-.34,0-.71.1-.97.31-.24.19-.25.37-.25.78v.49h2.11v.62h-2.11Z"/>
    <path class="cls-3" d="M68.61,55.38c-1.46,0-2.47-.33-3.11-.75-.57-.36-.66-.67-.66-1.43v-1.96c0-.75.09-1.05.66-1.43.62-.41,1.56-.8,2.97-.8.85,0,1.74.09,2.44.34v1.06c-.81-.23-1.73-.36-2.42-.36-.94,0-1.68.24-2.12.57-.2.17-.24.38-.24.69v1.79c0,.31.04.52.24.68.45.36,1.28.54,2.26.54.37,0,.82-.05,1.28-.12v-2.04h1.29v2.82c-.74.26-1.71.37-2.58.37Z"/>
    <path class="cls-3" d="M72.33,55.27v-6.95h1.29v6.95h-1.29Z"/>
    <path class="cls-3" d="M74.79,51.98c0-.54.11-.85.47-1.12.52-.39,1.32-.7,2.45-.7s1.9.31,2.44.71c.35.27.48.56.48,1.13v1.56c0,.57-.14.87-.48,1.13-.54.4-1.32.69-2.44.69s-1.93-.29-2.45-.68c-.37-.28-.47-.58-.47-1.12v-1.6ZM76.09,53.46c0,.29.07.45.35.61.36.21.75.28,1.28.28s.9-.08,1.26-.29c.28-.15.38-.31.38-.6v-1.36c0-.3-.1-.45-.38-.6-.36-.21-.75-.29-1.26-.29s-.93.07-1.28.28c-.29.16-.35.33-.35.61v1.36Z"/>
    <path class="cls-3" d="M83.11,54.62v.65h-1.29v-6.95h1.29v2.61c.57-.5,1.35-.78,2.1-.78s1.46.25,1.96.69c.33.3.48.58.48,1.19v1.48c0,.61-.16.9-.48,1.19-.5.44-1.21.67-1.96.67s-1.53-.27-2.1-.76ZM84.91,54.34c.45,0,.76-.1,1.07-.3.27-.16.38-.31.38-.6v-1.34c0-.31-.11-.44-.38-.6-.32-.2-.62-.3-1.07-.3-.58,0-1.43.32-1.8.79v1.56c.37.47,1.22.79,1.8.79Z"/>
    <path class="cls-3" d="M93.23,54.6c-.57.5-1.34.78-2.09.78s-1.46-.23-1.96-.67c-.34-.3-.47-.58-.47-1.19v-1.48c0-.61.14-.9.47-1.19.5-.44,1.2-.69,1.96-.69s1.52.29,2.09.8v-.68h1.29v5h-1.29v-.67ZM93.23,52.02c-.38-.47-1.21-.81-1.8-.81-.45,0-.75.1-1.07.3-.27.16-.35.3-.35.6v1.34c0,.3.09.44.35.6.33.2.62.3,1.07.3.59,0,1.42-.34,1.8-.82v-1.51Z"/>
    <path class="cls-3" d="M95.82,55.27v-6.95h1.29v6.95h-1.29Z"/>
    <path class="cls-3" d="M100.49,49.11h3.13c1.28,0,2.06.29,2.64.74.48.38.56.71.56,1.49v1.72c0,.78-.06,1.12-.57,1.52-.56.43-1.35.7-2.63.7h-3.13v-6.16ZM101.78,50.11v4.17h1.63c.9,0,1.5-.2,1.85-.47.21-.18.28-.42.28-.75v-1.74c0-.32-.07-.56-.28-.74-.36-.28-.96-.46-1.85-.46h-1.63Z"/>
    <path class="cls-3" d="M108.02,55.27v-5h1.29v.74c.47-.51,1.06-.86,1.76-.86.26,0,.5.05.72.14v1.01c-.24-.06-.53-.09-.83-.09-.65,0-1.28.31-1.66.72v3.34h-1.29Z"/>
    <path class="cls-3" d="M117.01,54.6c-.57.5-1.34.78-2.09.78s-1.46-.23-1.96-.67c-.34-.3-.47-.58-.47-1.19v-1.48c0-.61.14-.9.47-1.19.5-.44,1.2-.69,1.96-.69s1.52.29,2.09.8v-.68h1.29v5h-1.29v-.67ZM117.01,52.02c-.38-.47-1.21-.81-1.8-.81-.45,0-.75.1-1.07.3-.27.16-.35.3-.35.6v1.34c0,.3.09.44.35.6.33.2.62.3,1.07.3.59,0,1.42-.34,1.8-.82v-1.51Z"/>
    <path class="cls-3" d="M119.6,49.49v-1.17h1.29v1.17h-1.29ZM119.6,55.27v-5h1.29v5h-1.29Z"/>
    <path class="cls-3" d="M122.19,55.27v-5h1.29v.73c.5-.51,1.15-.85,1.9-.85s1.43.2,1.93.63c.34.3.47.59.47,1.2v3.28h-1.29v-3.22c0-.31-.09-.44-.34-.59-.27-.18-.61-.25-1.09-.25-.61,0-1.18.32-1.59.74v3.32h-1.29Z"/>
    <path class="cls-3" d="M134.21,50.11v5.16h-1.29v-5.16h-2.33v-1h5.94v1h-2.33Z"/>
    <path class="cls-3" d="M139.82,55.34c-1.4,0-2.19-.24-2.69-.62-.37-.28-.47-.59-.47-1.14v-1.6c0-.54.11-.85.47-1.12.52-.39,1.29-.7,2.4-.7s1.87.31,2.4.71c.34.27.48.56.48,1.13v.53c0,.49-.2.62-.66.62h-3.81v.36c0,.28.07.44.35.6.36.2.73.29,1.53.29.65,0,1.49-.05,2.33-.21v.98c-.72.13-1.57.18-2.34.18ZM137.95,52.26h3.18v-.27c0-.31-.09-.45-.36-.61-.37-.2-.74-.27-1.23-.27s-.88.06-1.23.27c-.29.15-.35.32-.35.59v.29Z"/>
    <path class="cls-3" d="M148.19,55.2c-.45.09-.97.18-1.64.18-1.29,0-2.1-.23-2.57-.59-.4-.31-.51-.66-.51-1.21v-1.6c0-.54.11-.85.47-1.12.52-.39,1.32-.7,2.45-.7.77,0,1.32.09,1.79.2v1.04c-.56-.11-1.17-.19-1.79-.19-.53,0-.93.07-1.28.28-.29.16-.35.33-.35.61v1.36c0,.29.07.45.35.61.36.21.75.28,1.28.28.6,0,1.26-.07,1.79-.2v1.05Z"/>
    <path class="cls-3" d="M149.29,55.27v-6.95h1.29v2.68c.5-.51,1.15-.85,1.9-.85s1.43.2,1.93.63c.34.3.47.59.47,1.2v3.28h-1.29v-3.22c0-.31-.09-.44-.34-.59-.27-.18-.61-.25-1.09-.25-.61,0-1.18.32-1.59.74v3.32h-1.29Z"/>
    <path class="cls-3" d="M156.2,55.27v-5h1.29v.73c.5-.51,1.15-.85,1.9-.85s1.43.2,1.93.63c.34.3.47.59.47,1.2v3.28h-1.29v-3.22c0-.31-.09-.44-.34-.59-.27-.18-.61-.25-1.09-.25-.61,0-1.18.32-1.59.74v3.32h-1.29Z"/>
    <path class="cls-3" d="M162.98,51.98c0-.54.11-.85.47-1.12.52-.39,1.32-.7,2.45-.7s1.9.31,2.44.71c.35.27.48.56.48,1.13v1.56c0,.57-.14.87-.48,1.13-.54.4-1.32.69-2.44.69s-1.93-.29-2.45-.68c-.37-.28-.47-.58-.47-1.12v-1.6ZM164.28,53.46c0,.29.07.45.35.61.36.21.75.28,1.28.28s.9-.08,1.26-.29c.28-.15.38-.31.38-.6v-1.36c0-.3-.1-.45-.38-.6-.36-.21-.75-.29-1.26-.29s-.93.07-1.28.28c-.29.16-.35.33-.35.61v1.36Z"/>
    <path class="cls-3" d="M170.01,55.27v-6.95h1.29v6.95h-1.29Z"/>
    <path class="cls-3" d="M172.47,51.98c0-.54.11-.85.47-1.12.52-.39,1.32-.7,2.45-.7s1.9.31,2.44.71c.35.27.48.56.48,1.13v1.56c0,.57-.14.87-.48,1.13-.54.4-1.32.69-2.44.69s-1.93-.29-2.45-.68c-.37-.28-.47-.58-.47-1.12v-1.6ZM173.76,53.46c0,.29.07.45.35.61.36.21.75.28,1.28.28s.9-.08,1.26-.29c.28-.15.38-.31.38-.6v-1.36c0-.3-.1-.45-.38-.6-.36-.21-.75-.29-1.26-.29s-.93.07-1.28.28c-.29.16-.35.33-.35.61v1.36Z"/>
    <path class="cls-3" d="M179.65,57.14v-.99c.85.16,1.68.22,2.32.22.83,0,1.21-.09,1.58-.3.28-.15.36-.32.36-.59v-.91c-.57.49-1.34.76-2.09.76s-1.46-.23-1.96-.67c-.34-.3-.47-.59-.47-1.19v-1.44c0-.61.14-.9.47-1.19.5-.44,1.2-.69,1.96-.69s1.52.28,2.09.78v-.66h1.29v5.27c0,.55-.12.87-.47,1.15-.51.39-1.32.64-2.74.64-.77,0-1.61-.06-2.33-.2ZM183.9,52c-.37-.47-1.21-.79-1.8-.79-.45,0-.75.1-1.07.3-.27.16-.35.3-.35.6v1.3c0,.31.09.44.35.61.33.2.62.3,1.07.3.59,0,1.43-.34,1.8-.8v-1.52Z"/>
    <path class="cls-3" d="M186.5,49.49v-1.17h1.29v1.17h-1.29ZM186.5,55.27v-5h1.29v5h-1.29Z"/>
    <path class="cls-3" d="M192.13,55.34c-1.4,0-2.19-.24-2.69-.62-.37-.28-.47-.59-.47-1.14v-1.6c0-.54.11-.85.47-1.12.52-.39,1.29-.7,2.4-.7s1.87.31,2.4.71c.34.27.48.56.48,1.13v.53c0,.49-.2.62-.66.62h-3.81v.36c0,.28.07.44.35.6.36.2.73.29,1.53.29.65,0,1.49-.05,2.33-.21v.98c-.72.13-1.57.18-2.34.18ZM190.26,52.26h3.18v-.27c0-.31-.09-.45-.36-.61-.37-.2-.74-.27-1.23-.27s-.88.06-1.23.27c-.29.15-.35.32-.35.59v.29Z"/>
    <path class="cls-3" d="M200.62,50.34v.99c-.79-.15-1.51-.21-2.29-.21-1.07,0-1.26.12-1.26.42,0,.24.08.36.7.51l1.35.34c.73.18,1.12.33,1.39.51.28.2.42.42.42.8v.42c0,.42-.19.69-.53.91-.36.22-1.13.38-2.3.38-.84,0-1.62-.06-2.32-.22v-.98c.81.16,1.66.24,2.49.24,1.11,0,1.4-.17,1.4-.47,0-.25-.07-.38-.72-.53l-1.33-.33c-.7-.17-1.13-.32-1.44-.52-.22-.17-.38-.46-.38-.82v-.3c0-.37.17-.69.48-.9.36-.26,1.1-.44,2.18-.44.78,0,1.45.05,2.15.19Z"/>
  </g>
</svg>